<svg width="596" height="596" viewBox="0 0 596 596" fill="none" xmlns="http://www.w3.org/2000/svg">
<g filter="url(#filter0_d_3_137)">
<circle cx="298" cy="298" r="102.5" stroke="#747474" shape-rendering="crispEdges"/>
</g>
<g filter="url(#filter1_d_3_137)">
<path fill-rule="evenodd" clip-rule="evenodd" d="M404.556 434.299C375.185 457.293 338.193 471 298 471C257.807 471 220.815 457.293 191.443 434.299C190.705 435.026 189.927 435.688 189.115 436.285C219.072 459.905 256.89 474 298 474C339.11 474 376.928 459.905 406.885 436.285C406.073 435.688 405.295 435.026 404.556 434.299ZM407.173 432.209C416.346 424.738 424.738 416.346 432.209 407.173C432.924 407.931 433.56 408.737 434.116 409.58C426.762 418.541 418.541 426.762 409.58 434.116C408.737 433.56 407.931 432.924 407.173 432.209ZM436.285 406.885C435.688 406.073 435.026 405.295 434.299 404.557C457.293 375.185 471 338.193 471 298C471 257.807 457.293 220.815 434.299 191.443C435.026 190.705 435.688 189.927 436.285 189.115C459.905 219.072 474 256.89 474 298C474 339.11 459.905 376.928 436.285 406.885ZM409.58 161.884C418.541 169.238 426.762 177.459 434.116 186.42C433.56 187.263 432.924 188.069 432.209 188.827C424.738 179.654 416.346 171.262 407.173 163.791C407.931 163.076 408.737 162.44 409.58 161.884ZM406.885 159.715C376.928 136.095 339.11 122 298 122C256.89 122 219.072 136.095 189.115 159.715C189.927 160.312 190.705 160.974 191.443 161.701C220.815 138.707 257.807 125 298 125C338.193 125 375.185 138.707 404.557 161.701C405.295 160.974 406.073 160.312 406.885 159.715ZM188.827 163.791C179.654 171.262 171.262 179.654 163.791 188.827C163.076 188.069 162.44 187.263 161.884 186.42C169.238 177.459 177.459 169.238 186.42 161.884C187.263 162.44 188.069 163.076 188.827 163.791ZM159.715 189.115C160.312 189.927 160.974 190.705 161.701 191.443C138.707 220.815 125 257.807 125 298C125 338.193 138.707 375.185 161.701 404.557C160.974 405.295 160.312 406.073 159.715 406.885C136.095 376.928 122 339.11 122 298C122 256.89 136.095 219.072 159.715 189.115ZM186.42 434.116C177.459 426.762 169.238 418.541 161.884 409.58C162.44 408.737 163.076 407.931 163.791 407.173C171.262 416.346 179.654 424.738 188.827 432.209C188.069 432.924 187.263 433.56 186.42 434.116Z" fill="#747474"/>
</g>
<g filter="url(#filter2_d_3_137)">
<path fill-rule="evenodd" clip-rule="evenodd" d="M51.647 326.736C64.8009 440.738 155.262 531.199 269.264 544.353C273.459 532.532 284.741 524.066 298 524.066C311.259 524.066 322.541 532.532 326.736 544.353C440.738 531.199 531.199 440.738 544.353 326.736C532.532 322.542 524.066 311.259 524.066 298C524.066 284.741 532.532 273.459 544.353 269.264C531.199 155.262 440.738 64.8009 326.736 51.6469C322.542 63.4683 311.259 71.9342 298 71.9342C284.741 71.9342 273.459 63.4683 269.264 51.6469C155.262 64.8009 64.801 155.262 51.647 269.264C63.4683 273.459 71.9342 284.741 71.9342 298C71.9342 311.259 63.4683 322.541 51.647 326.736ZM335.068 517.933C319.941 520.464 307.124 508.046 307.124 492.708V488.17C304.371 489.523 301.274 490.283 298 490.283C294.726 490.283 291.629 489.523 288.876 488.17V492.708C288.876 508.046 276.059 520.464 260.932 517.933C227.389 512.321 196.383 499.222 169.69 480.411C157.107 471.544 156.775 453.628 167.659 442.744L171.127 439.276C167.797 438.353 164.653 436.582 162.035 433.965C160.013 431.942 158.496 429.606 157.485 427.112L154.507 430.09C143.694 440.903 125.918 440.661 116.976 428.256C97.7383 401.568 84.2573 370.453 78.3519 336.733C75.6939 321.556 88.1364 308.624 103.545 308.624H108.646C106.786 305.518 105.717 301.884 105.717 298C105.717 295.308 106.231 292.736 107.165 290.376H103.05C87.7832 290.376 75.3898 277.673 77.7948 262.597C83.2474 228.415 96.4677 196.824 115.589 169.69C124.456 157.107 142.372 156.775 153.256 167.659L156.724 171.127C157.647 167.797 159.418 164.653 162.035 162.035C164.058 160.013 166.395 158.496 168.888 157.485L165.91 154.507C155.097 143.694 155.339 125.918 167.744 116.976C194.871 97.4221 226.57 83.8157 260.932 78.0668C276.059 75.5359 288.876 87.9541 288.876 103.292V107.83C291.629 106.477 294.726 105.717 298 105.717C301.274 105.717 304.371 106.477 307.124 107.83V103.292C307.124 87.9541 319.941 75.5359 335.068 78.0668C369.43 83.8157 401.129 97.4221 428.256 116.976C440.661 125.918 440.903 143.694 430.09 154.507L427.112 157.485C429.606 158.496 431.942 160.013 433.965 162.035C436.582 164.653 438.353 167.797 439.276 171.127L442.744 167.659C453.628 156.775 471.544 157.107 480.411 169.69C499.532 196.824 512.753 228.415 518.205 262.597C520.61 277.673 508.217 290.376 492.95 290.376H488.835C489.769 292.736 490.283 295.308 490.283 298C490.283 301.884 489.214 305.518 487.354 308.624H492.455C507.864 308.624 520.306 321.556 517.648 336.733C511.743 370.453 498.262 401.568 479.024 428.256C470.082 440.661 452.306 440.903 441.493 430.09L438.515 427.112C437.504 429.606 435.987 431.942 433.965 433.965C431.347 436.582 428.203 438.353 424.873 439.276L428.341 442.744C439.225 453.628 438.893 471.544 426.31 480.411C399.618 499.222 368.611 512.321 335.068 517.933ZM483.744 308.624H455.4C453.178 305.664 451.862 301.986 451.862 298C451.862 295.271 452.479 292.685 453.582 290.376H485.563C486.666 292.685 487.283 295.271 487.283 298C487.283 301.986 485.966 305.664 483.744 308.624ZM450.31 290.376C449.375 292.736 448.862 295.308 448.862 298C448.862 301.884 449.931 305.518 451.79 308.624H349.935C350.633 305.191 351 301.639 351 298C351 295.411 350.814 292.866 350.456 290.376L450.31 290.376ZM307.124 141.611V111.245C304.459 109.64 301.337 108.717 298 108.717C294.663 108.717 291.541 109.64 288.876 111.245V141.611C291.541 143.215 294.663 144.138 298 144.138C301.337 144.138 304.459 143.215 307.124 141.611ZM288.876 145.026V188.888C291.254 186.635 294.466 185.253 298 185.253C301.534 185.253 304.746 186.635 307.124 188.888V145.026C304.371 146.379 301.274 147.138 298 147.138C294.726 147.138 291.629 146.379 288.876 145.026ZM110.437 290.376H142.418C143.521 292.685 144.138 295.271 144.138 298C144.138 301.986 142.822 305.664 140.599 308.624H112.256C110.034 305.664 108.717 301.986 108.717 298C108.717 295.271 109.334 292.685 110.437 290.376ZM144.21 308.624C146.069 305.518 147.138 301.884 147.138 298C147.138 295.308 146.625 292.736 145.69 290.376L245.544 290.376C245.186 292.866 245 295.411 245 298C245 301.639 245.367 305.191 246.065 308.624H144.21ZM288.876 484.755V454.389C291.541 452.785 294.663 451.862 298 451.862C301.337 451.862 304.459 452.785 307.124 454.39V484.755C304.459 486.36 301.337 487.283 298 487.283C294.663 487.283 291.541 486.36 288.876 484.755ZM307.124 450.975C304.371 449.622 301.274 448.862 298 448.862C294.726 448.862 291.629 449.621 288.876 450.974V407.112C291.254 409.365 294.466 410.747 298 410.747C301.534 410.747 304.746 409.365 307.124 407.112V450.975ZM184.472 400.125L255.256 329.341C258.879 334.275 263.336 338.558 268.419 341.984L196.636 413.767C195.713 410.437 193.942 407.293 191.325 404.675C189.302 402.653 186.966 401.136 184.472 400.125ZM257.403 327.194C260.984 332.164 265.455 336.451 270.583 339.82L275.097 335.306C275.284 335.119 275.46 334.927 275.627 334.729C270.386 331.529 265.882 327.238 262.433 322.173C262.352 322.248 262.273 322.324 262.194 322.403L257.403 327.194ZM288.876 387.844V350.218C291.84 350.732 294.889 351 298 351C301.111 351 304.16 350.732 307.124 350.218V387.844C304.746 385.591 301.534 384.209 298 384.209C294.466 384.209 291.254 385.591 288.876 387.844ZM399.364 413.767L327.581 341.984C332.664 338.558 337.121 334.275 340.745 329.341L411.528 400.125C409.034 401.136 406.698 402.653 404.675 404.675C402.058 407.293 400.287 410.437 399.364 413.767ZM325.417 339.82C330.545 336.451 335.016 332.164 338.597 327.194L333.806 322.403C333.727 322.324 333.648 322.248 333.567 322.173C330.118 327.238 325.615 331.529 320.373 334.729C320.54 334.927 320.716 335.119 320.903 335.306L325.417 339.82ZM348 298C348 301.646 347.61 305.2 346.869 308.624H339.678C340.541 305.226 341 301.667 341 298C341 295.398 340.769 292.851 340.326 290.376H347.422C347.803 292.862 348 295.408 348 298ZM339 298C339 301.606 338.534 305.104 337.66 308.435C333.51 307.579 330.39 303.904 330.39 299.5C330.39 294.87 333.838 291.045 338.307 290.455C338.762 292.901 339 295.423 339 298ZM339.82 270.583L334.747 275.657C331.544 270.401 327.245 265.886 322.168 262.429L327.194 257.403C332.165 260.984 336.451 265.455 339.82 270.583ZM307.124 248.831V255.97C304.183 255.335 301.131 255 298 255C294.869 255 291.817 255.335 288.876 255.97V248.83C291.835 248.285 294.884 248 298 248C301.116 248 304.166 248.285 307.124 248.831ZM298 257C294.864 257 291.81 257.352 288.876 258.019C288.894 263.043 292.972 267.11 298 267.11C303.028 267.11 307.106 263.043 307.124 258.019C304.19 257.352 301.136 257 298 257ZM268.806 257.403L273.832 262.429C268.755 265.886 264.456 270.4 261.253 275.657L256.18 270.583C259.549 265.455 263.836 260.984 268.806 257.403ZM275.27 263.872C270.165 267.279 265.868 271.8 262.726 277.089C266.311 280.152 271.706 279.988 275.097 276.597C278.602 273.093 278.659 267.447 275.27 263.872ZM248.578 290.376H255.674C255.231 292.851 255 295.398 255 298C255 301.667 255.459 305.226 256.322 308.624H249.131C248.39 305.2 248 301.646 248 298C248 295.408 248.197 292.862 248.578 290.376ZM257 298C257 301.606 257.466 305.104 258.34 308.436C262.49 307.579 265.611 303.904 265.611 299.5C265.611 294.87 262.162 291.045 257.693 290.455C257.238 292.901 257 295.423 257 298ZM276.742 333.066C271.688 329.995 267.35 325.862 264.038 320.977C267.533 318.929 272.099 319.405 275.097 322.403C277.983 325.289 278.532 329.628 276.742 333.066ZM288.876 341.013C288.876 340.685 288.894 340.361 288.927 340.041C291.852 340.669 294.888 341 298 341C301.113 341 304.148 340.669 307.073 340.041C307.107 340.361 307.124 340.685 307.124 341.013V347.169C304.166 347.715 301.116 348 298 348C294.884 348 291.835 347.715 288.876 347.17V341.013ZM331.962 320.977C328.65 325.862 324.312 329.995 319.258 333.066C317.468 329.628 318.017 325.289 320.903 322.403C323.901 319.405 328.467 318.929 331.962 320.977ZM298 339C300.966 339 303.858 338.685 306.645 338.087C305.425 334.483 302.015 331.89 298 331.89C293.985 331.89 290.575 334.483 289.356 338.087C292.143 338.685 295.034 339 298 339ZM266.659 255.256C261.725 258.879 257.442 263.336 254.016 268.419L182.233 196.636C185.563 195.713 188.707 193.942 191.325 191.325C193.347 189.302 194.864 186.966 195.875 184.472L266.659 255.256ZM298 245C294.889 245 291.84 245.268 288.876 245.782V208.156C291.254 210.409 294.466 211.791 298 211.791C301.534 211.791 304.746 210.409 307.124 208.156V245.782C304.16 245.268 301.111 245 298 245ZM333.274 277.089C330.132 271.8 325.835 267.279 320.73 263.872C317.341 267.447 317.399 273.093 320.903 276.597C324.294 279.988 329.689 280.152 333.274 277.089ZM341.984 268.419C338.558 263.336 334.275 258.879 329.342 255.256L400.125 184.472C401.136 186.966 402.653 189.302 404.675 191.325C407.293 193.942 410.437 195.713 413.767 196.636L341.984 268.419ZM307.124 193.806V203.239C305.415 206.537 301.971 208.791 298 208.791C294.029 208.791 290.585 206.537 288.876 203.239V193.806C290.585 190.507 294.029 188.253 298 188.253C301.971 188.253 305.415 190.507 307.124 193.806ZM288.876 402.195V392.761C290.585 389.463 294.029 387.209 298 387.209C301.971 387.209 305.415 389.463 307.124 392.762V402.194C305.415 405.493 301.971 407.747 298 407.747C294.029 407.747 290.585 405.493 288.876 402.195ZM173.635 436.768L194.128 416.275C193.526 412.803 191.884 409.477 189.203 406.797C187.15 404.743 184.718 403.299 182.132 402.465L159.825 424.772C160.66 427.358 162.103 429.79 164.157 431.843C166.837 434.524 170.163 436.166 173.635 436.768ZM159.232 173.635L179.725 194.128C183.197 193.526 186.523 191.884 189.203 189.203C191.257 187.15 192.701 184.718 193.535 182.132L171.228 159.825C168.642 160.66 166.21 162.103 164.157 164.157C161.476 166.837 159.834 170.163 159.232 173.635ZM424.772 159.825L402.465 182.132C403.299 184.718 404.743 187.15 406.797 189.203C409.477 191.884 412.803 193.526 416.275 194.129L436.768 173.635C436.166 170.163 434.524 166.837 431.843 164.157C429.79 162.103 427.358 160.66 424.772 159.825ZM436.175 424.772L413.868 402.465C411.282 403.299 408.85 404.743 406.797 406.797C404.116 409.477 402.474 412.803 401.872 416.275L422.365 436.768C425.837 436.166 429.163 434.524 431.843 431.843C433.897 429.79 435.341 427.358 436.175 424.772Z" fill="#747474"/>
</g>
<g filter="url(#filter3_d_3_137)">
<path fill-rule="evenodd" clip-rule="evenodd" d="M348 298C348 325.614 325.614 348 298 348C270.386 348 248 325.614 248 298C248 270.386 270.386 248 298 248C325.614 248 348 270.386 348 298ZM295.353 292.12H291.753C291.7 290.52 291.193 289.2 290.233 288.16C289.273 287.093 287.82 286.56 285.873 286.56C283.953 286.56 282.487 286.987 281.473 287.84C280.487 288.693 279.993 289.747 279.993 291C279.993 293.24 281.26 294.653 283.793 295.24L289.513 296.56C291.7 297.067 293.353 297.987 294.473 299.32C295.593 300.653 296.153 302.227 296.153 304.04C296.153 305.88 295.727 307.453 294.873 308.76C294.047 310.04 292.887 311.027 291.393 311.72C289.927 312.387 288.207 312.72 286.233 312.72C282.767 312.72 280.113 311.867 278.273 310.16C276.46 308.427 275.527 306.067 275.473 303.08H279.073C279.1 304.947 279.727 306.467 280.953 307.64C282.18 308.813 283.967 309.4 286.313 309.4C288.42 309.4 289.953 308.947 290.913 308.04C291.9 307.133 292.393 305.973 292.393 304.56C292.393 303.307 292.047 302.32 291.353 301.6C290.687 300.88 289.66 300.36 288.273 300.04L282.473 298.68C280.447 298.2 278.9 297.347 277.833 296.12C276.767 294.867 276.233 293.28 276.233 291.36C276.233 289.787 276.633 288.413 277.433 287.24C278.233 286.04 279.353 285.107 280.793 284.44C282.26 283.747 283.993 283.4 285.993 283.4C287.94 283.4 289.607 283.76 290.993 284.48C292.407 285.2 293.487 286.187 294.233 287.44C294.98 288.667 295.353 290.053 295.353 291.6V292.12ZM308.72 288.04V284.04H312.72V288.04H308.72ZM312.36 291.04V309.28H318.8V312H301.88V309.28H309.08V293.76H301.88V291.04H312.36ZM339 298C339 320.644 320.644 339 298 339C275.356 339 257 320.644 257 298C257 275.356 275.356 257 298 257C320.644 257 339 275.356 339 298ZM341 298C341 321.748 321.748 341 298 341C274.252 341 255 321.748 255 298C255 274.252 274.252 255 298 255C321.748 255 341 274.252 341 298Z" fill="#747474"/>
</g>
<g filter="url(#filter4_d_3_137)">
<path fill-rule="evenodd" clip-rule="evenodd" d="M298 341C321.748 341 341 321.748 341 298C341 274.252 321.748 255 298 255C274.252 255 255 274.252 255 298C255 321.748 274.252 341 298 341ZM298 348C325.614 348 348 325.614 348 298C348 270.386 325.614 248 298 248C270.386 248 248 270.386 248 298C248 325.614 270.386 348 298 348Z" fill="#8B8B8B"/>
</g>
<g filter="url(#filter5_d_3_137)">
<path fill-rule="evenodd" clip-rule="evenodd" d="M272.167 548.692C274.833 536.884 285.386 528.066 298 528.066C310.613 528.066 321.167 536.884 323.833 548.692C442.38 536.621 536.621 442.38 548.692 323.833C536.884 321.167 528.066 310.614 528.066 298C528.066 285.387 536.884 274.833 548.692 272.167C536.621 153.62 442.38 59.379 323.833 47.3079C321.167 59.1158 310.614 67.9342 298 67.9342C285.387 67.9342 274.833 59.1158 272.167 47.3079C153.62 59.3789 59.379 153.62 47.3079 272.167C59.1158 274.833 67.9342 285.386 67.9342 298C67.9342 310.613 59.1158 321.167 47.3079 323.833C59.379 442.38 153.62 536.621 272.167 548.692ZM592 298C592 460.372 460.372 592 298 592C135.628 592 4 460.372 4 298C4 135.628 135.628 4 298 4C460.372 4 592 135.628 592 298ZM298 61.1449C286.914 61.1449 277.928 52.1582 277.928 41.0725C277.928 29.9867 286.914 21 298 21C309.086 21 318.072 29.9867 318.072 41.0725C318.072 52.1582 309.086 61.1449 298 61.1449ZM41.0725 318.072C52.1582 318.072 61.1449 309.086 61.1449 298C61.1449 286.914 52.1582 277.928 41.0725 277.928C29.9867 277.928 21 286.914 21 298C21 309.086 29.9867 318.072 41.0725 318.072ZM554.928 318.072C566.013 318.072 575 309.086 575 298C575 286.914 566.013 277.928 554.928 277.928C543.842 277.928 534.855 286.914 534.855 298C534.855 309.086 543.842 318.072 554.928 318.072ZM277.928 554.928C277.928 566.013 286.914 575 298 575C309.086 575 318.072 566.013 318.072 554.928C318.072 543.842 309.086 534.855 298 534.855C286.914 534.855 277.928 543.842 277.928 554.928Z" fill="#8B8B8B"/>
</g>
<g filter="url(#filter6_d_3_137)">
<path d="M287.731 198.522C287.731 192.851 292.329 188.253 298 188.253C303.671 188.253 308.269 192.851 308.269 198.522C308.269 204.193 303.671 208.791 298 208.791C292.329 208.791 287.731 204.193 287.731 198.522Z" fill="#8B8B8B"/>
<path d="M287.731 397.478C287.731 391.807 292.329 387.209 298 387.209C303.671 387.209 308.269 391.807 308.269 397.478C308.269 403.149 303.671 407.747 298 407.747C292.329 407.747 287.731 403.149 287.731 397.478Z" fill="#8B8B8B"/>
</g>
<g filter="url(#filter7_d_3_137)">
<path d="M189.203 431.843C182.287 438.76 171.073 438.76 164.157 431.843C157.24 424.927 157.24 413.713 164.157 406.797C171.073 399.88 182.287 399.88 189.203 406.797C196.12 413.713 196.12 424.927 189.203 431.843Z" fill="#8B8B8B"/>
<path d="M431.843 189.203C424.927 196.12 413.713 196.12 406.797 189.203C399.88 182.287 399.88 171.073 406.797 164.157C413.713 157.24 424.927 157.24 431.843 164.157C438.76 171.073 438.76 182.287 431.843 189.203Z" fill="#8B8B8B"/>
<path d="M164.157 189.203C157.24 182.287 157.24 171.073 164.157 164.157C171.073 157.24 182.287 157.24 189.203 164.157C196.12 171.073 196.12 182.287 189.203 189.203C182.287 196.12 171.073 196.12 164.157 189.203Z" fill="#8B8B8B"/>
<path d="M406.797 431.843C399.88 424.927 399.88 413.713 406.797 406.797C413.713 399.88 424.927 399.88 431.843 406.797C438.76 413.713 438.76 424.927 431.843 431.843C424.927 438.76 413.713 438.76 406.797 431.843Z" fill="#8B8B8B"/>
</g>
<g filter="url(#filter8_d_3_137)">
<path d="M126.428 315.711C116.646 315.711 108.717 307.781 108.717 298C108.717 288.219 116.646 280.289 126.428 280.289C136.209 280.289 144.138 288.219 144.138 298C144.138 307.781 136.209 315.711 126.428 315.711Z" fill="#8B8B8B"/>
<path d="M469.572 315.711C459.791 315.711 451.862 307.781 451.862 298C451.862 288.219 459.791 280.289 469.572 280.289C479.354 280.289 487.283 288.219 487.283 298C487.283 307.781 479.354 315.711 469.572 315.711Z" fill="#8B8B8B"/>
<path d="M280.289 126.428C280.289 116.646 288.219 108.717 298 108.717C307.781 108.717 315.711 116.646 315.711 126.428C315.711 136.209 307.781 144.138 298 144.138C288.219 144.138 280.289 136.209 280.289 126.428Z" fill="#8B8B8B"/>
<path d="M280.289 469.572C280.289 459.791 288.219 451.862 298 451.862C307.781 451.862 315.711 459.791 315.711 469.572C315.711 479.354 307.781 487.283 298 487.283C288.219 487.283 280.289 479.354 280.289 469.572Z" fill="#8B8B8B"/>
</g>
<defs>
<filter id="filter0_d_3_137" x="191" y="191" width="214" height="214" filterUnits="userSpaceOnUse" color-interpolation-filters="sRGB">
<feFlood flood-opacity="0" result="BackgroundImageFix"/>
<feColorMatrix in="SourceAlpha" type="matrix" values="0 0 0 0 0 0 0 0 0 0 0 0 0 0 0 0 0 0 127 0" result="hardAlpha"/>
<feOffset/>
<feGaussianBlur stdDeviation="2"/>
<feComposite in2="hardAlpha" operator="out"/>
<feColorMatrix type="matrix" values="0 0 0 0 0 0 0 0 0 0 0 0 0 0 0 0 0 0 0.1 0"/>
<feBlend mode="normal" in2="BackgroundImageFix" result="effect1_dropShadow_3_137"/>
<feBlend mode="normal" in="SourceGraphic" in2="effect1_dropShadow_3_137" result="shape"/>
</filter>
<filter id="filter1_d_3_137" x="118" y="118" width="360" height="360" filterUnits="userSpaceOnUse" color-interpolation-filters="sRGB">
<feFlood flood-opacity="0" result="BackgroundImageFix"/>
<feColorMatrix in="SourceAlpha" type="matrix" values="0 0 0 0 0 0 0 0 0 0 0 0 0 0 0 0 0 0 127 0" result="hardAlpha"/>
<feOffset/>
<feGaussianBlur stdDeviation="2"/>
<feComposite in2="hardAlpha" operator="out"/>
<feColorMatrix type="matrix" values="0 0 0 0 0 0 0 0 0 0 0 0 0 0 0 0 0 0 0.1 0"/>
<feBlend mode="normal" in2="BackgroundImageFix" result="effect1_dropShadow_3_137"/>
<feBlend mode="normal" in="SourceGraphic" in2="effect1_dropShadow_3_137" result="shape"/>
</filter>
<filter id="filter2_d_3_137" x="47.647" y="47.6469" width="500.706" height="500.706" filterUnits="userSpaceOnUse" color-interpolation-filters="sRGB">
<feFlood flood-opacity="0" result="BackgroundImageFix"/>
<feColorMatrix in="SourceAlpha" type="matrix" values="0 0 0 0 0 0 0 0 0 0 0 0 0 0 0 0 0 0 127 0" result="hardAlpha"/>
<feOffset/>
<feGaussianBlur stdDeviation="2"/>
<feComposite in2="hardAlpha" operator="out"/>
<feColorMatrix type="matrix" values="0 0 0 0 0 0 0 0 0 0 0 0 0 0 0 0 0 0 0.1 0"/>
<feBlend mode="normal" in2="BackgroundImageFix" result="effect1_dropShadow_3_137"/>
<feBlend mode="normal" in="SourceGraphic" in2="effect1_dropShadow_3_137" result="shape"/>
</filter>
<filter id="filter3_d_3_137" x="244" y="244" width="108" height="108" filterUnits="userSpaceOnUse" color-interpolation-filters="sRGB">
<feFlood flood-opacity="0" result="BackgroundImageFix"/>
<feColorMatrix in="SourceAlpha" type="matrix" values="0 0 0 0 0 0 0 0 0 0 0 0 0 0 0 0 0 0 127 0" result="hardAlpha"/>
<feOffset/>
<feGaussianBlur stdDeviation="2"/>
<feComposite in2="hardAlpha" operator="out"/>
<feColorMatrix type="matrix" values="0 0 0 0 0 0 0 0 0 0 0 0 0 0 0 0 0 0 0.1 0"/>
<feBlend mode="normal" in2="BackgroundImageFix" result="effect1_dropShadow_3_137"/>
<feBlend mode="normal" in="SourceGraphic" in2="effect1_dropShadow_3_137" result="shape"/>
</filter>
<filter id="filter4_d_3_137" x="244" y="244" width="108" height="108" filterUnits="userSpaceOnUse" color-interpolation-filters="sRGB">
<feFlood flood-opacity="0" result="BackgroundImageFix"/>
<feColorMatrix in="SourceAlpha" type="matrix" values="0 0 0 0 0 0 0 0 0 0 0 0 0 0 0 0 0 0 127 0" result="hardAlpha"/>
<feOffset/>
<feGaussianBlur stdDeviation="2"/>
<feComposite in2="hardAlpha" operator="out"/>
<feColorMatrix type="matrix" values="0 0 0 0 0 0 0 0 0 0 0 0 0 0 0 0 0 0 0.1 0"/>
<feBlend mode="normal" in2="BackgroundImageFix" result="effect1_dropShadow_3_137"/>
<feBlend mode="normal" in="SourceGraphic" in2="effect1_dropShadow_3_137" result="shape"/>
</filter>
<filter id="filter5_d_3_137" x="0" y="0" width="596" height="596" filterUnits="userSpaceOnUse" color-interpolation-filters="sRGB">
<feFlood flood-opacity="0" result="BackgroundImageFix"/>
<feColorMatrix in="SourceAlpha" type="matrix" values="0 0 0 0 0 0 0 0 0 0 0 0 0 0 0 0 0 0 127 0" result="hardAlpha"/>
<feOffset/>
<feGaussianBlur stdDeviation="2"/>
<feComposite in2="hardAlpha" operator="out"/>
<feColorMatrix type="matrix" values="0 0 0 0 0 0 0 0 0 0 0 0 0 0 0 0 0 0 0.1 0"/>
<feBlend mode="normal" in2="BackgroundImageFix" result="effect1_dropShadow_3_137"/>
<feBlend mode="normal" in="SourceGraphic" in2="effect1_dropShadow_3_137" result="shape"/>
</filter>
<filter id="filter6_d_3_137" x="283.731" y="184.253" width="28.5374" height="227.493" filterUnits="userSpaceOnUse" color-interpolation-filters="sRGB">
<feFlood flood-opacity="0" result="BackgroundImageFix"/>
<feColorMatrix in="SourceAlpha" type="matrix" values="0 0 0 0 0 0 0 0 0 0 0 0 0 0 0 0 0 0 127 0" result="hardAlpha"/>
<feOffset/>
<feGaussianBlur stdDeviation="2"/>
<feComposite in2="hardAlpha" operator="out"/>
<feColorMatrix type="matrix" values="0 0 0 0 0 0 0 0 0 0 0 0 0 0 0 0 0 0 0.1 0"/>
<feBlend mode="normal" in2="BackgroundImageFix" result="effect1_dropShadow_3_137"/>
<feBlend mode="normal" in="SourceGraphic" in2="effect1_dropShadow_3_137" result="shape"/>
</filter>
<filter id="filter7_d_3_137" x="154.969" y="154.969" width="286.061" height="286.061" filterUnits="userSpaceOnUse" color-interpolation-filters="sRGB">
<feFlood flood-opacity="0" result="BackgroundImageFix"/>
<feColorMatrix in="SourceAlpha" type="matrix" values="0 0 0 0 0 0 0 0 0 0 0 0 0 0 0 0 0 0 127 0" result="hardAlpha"/>
<feOffset/>
<feGaussianBlur stdDeviation="2"/>
<feComposite in2="hardAlpha" operator="out"/>
<feColorMatrix type="matrix" values="0 0 0 0 0 0 0 0 0 0 0 0 0 0 0 0 0 0 0.1 0"/>
<feBlend mode="normal" in2="BackgroundImageFix" result="effect1_dropShadow_3_137"/>
<feBlend mode="normal" in="SourceGraphic" in2="effect1_dropShadow_3_137" result="shape"/>
</filter>
<filter id="filter8_d_3_137" x="104.717" y="104.717" width="386.566" height="386.566" filterUnits="userSpaceOnUse" color-interpolation-filters="sRGB">
<feFlood flood-opacity="0" result="BackgroundImageFix"/>
<feColorMatrix in="SourceAlpha" type="matrix" values="0 0 0 0 0 0 0 0 0 0 0 0 0 0 0 0 0 0 127 0" result="hardAlpha"/>
<feOffset/>
<feGaussianBlur stdDeviation="2"/>
<feComposite in2="hardAlpha" operator="out"/>
<feColorMatrix type="matrix" values="0 0 0 0 0 0 0 0 0 0 0 0 0 0 0 0 0 0 0.1 0"/>
<feBlend mode="normal" in2="BackgroundImageFix" result="effect1_dropShadow_3_137"/>
<feBlend mode="normal" in="SourceGraphic" in2="effect1_dropShadow_3_137" result="shape"/>
</filter>
</defs>
</svg>
